<svg xmlns="http://www.w3.org/2000/svg" width="36" height="36" viewBox="0 0 36 36" fill="none">
  <path d="M26.75 11.9968H25.2917V9.08012C25.2917 5.05512 22.025 1.78845 18 1.78845C13.975 1.78845 10.7083 5.05512 10.7083 9.08012V11.9968H9.25001C7.64584 11.9968 6.33334 13.3093 6.33334 14.9135V29.4968C6.33334 31.101 7.64584 32.4135 9.25001 32.4135H26.75C28.3542 32.4135 29.6667 31.101 29.6667 29.4968V14.9135C29.6667 13.3093 28.3542 11.9968 26.75 11.9968ZM18 25.1218C16.3958 25.1218 15.0833 23.8093 15.0833 22.2051C15.0833 20.601 16.3958 19.2885 18 19.2885C19.6042 19.2885 20.9167 20.601 20.9167 22.2051C20.9167 23.8093 19.6042 25.1218 18 25.1218ZM22.5208 11.9968H13.4792V9.08012C13.4792 6.58637 15.5063 4.55929 18 4.55929C20.4938 4.55929 22.5208 6.58637 22.5208 9.08012V11.9968Z" fill="#13181F"/>
</svg>