<svg xmlns="http://www.w3.org/2000/svg" width="25" height="25" viewBox="0 0 25 25" fill="none">
  <path d="M20 14.03C20.0019 14.3358 19.909 14.6347 19.7341 14.8855C19.5591 15.1363 19.3108 15.3268 19.0232 15.4307L14.1875 17.2175L12.4063 22.0569C12.3008 22.3435 12.1099 22.5908 11.8595 22.7655C11.609 22.9402 11.311 23.0338 11.0057 23.0338C10.7003 23.0338 10.4023 22.9402 10.1518 22.7655C9.90136 22.5908 9.71051 22.3435 9.60503 22.0569L7.81253 17.2175L2.97315 15.4363C2.68659 15.3308 2.43927 15.1399 2.26458 14.8895C2.08988 14.639 1.99622 14.341 1.99622 14.0357C1.99622 13.7303 2.08988 13.4323 2.26458 13.1818C2.43927 12.9314 2.68659 12.7405 2.97315 12.635L7.81253 10.8425L9.59378 6.00315C9.69926 5.71659 9.89011 5.46927 10.1406 5.29458C10.391 5.11988 10.689 5.02622 10.9944 5.02622C11.2998 5.02622 11.5978 5.11988 11.8482 5.29458C12.0987 5.46927 12.2895 5.71659 12.395 6.00315L14.1875 10.8425L19.0269 12.6238C19.3147 12.7286 19.5629 12.9202 19.7372 13.172C19.9116 13.4239 20.0034 13.7237 20 14.03ZM14.75 5.03003H16.25V6.53003C16.25 6.72894 16.329 6.91971 16.4697 7.06036C16.6103 7.20101 16.8011 7.28003 17 7.28003C17.1989 7.28003 17.3897 7.20101 17.5304 7.06036C17.671 6.91971 17.75 6.72894 17.75 6.53003V5.03003H19.25C19.4489 5.03003 19.6397 4.95101 19.7804 4.81036C19.921 4.66971 20 4.47894 20 4.28003C20 4.08112 19.921 3.89035 19.7804 3.7497C19.6397 3.60905 19.4489 3.53003 19.25 3.53003H17.75V2.03003C17.75 1.83112 17.671 1.64035 17.5304 1.4997C17.3897 1.35905 17.1989 1.28003 17 1.28003C16.8011 1.28003 16.6103 1.35905 16.4697 1.4997C16.329 1.64035 16.25 1.83112 16.25 2.03003V3.53003H14.75C14.5511 3.53003 14.3603 3.60905 14.2197 3.7497C14.079 3.89035 14 4.08112 14 4.28003C14 4.47894 14.079 4.66971 14.2197 4.81036C14.3603 4.95101 14.5511 5.03003 14.75 5.03003ZM23 8.03003H22.25V7.28003C22.25 7.08112 22.171 6.89035 22.0304 6.7497C21.8897 6.60905 21.6989 6.53003 21.5 6.53003C21.3011 6.53003 21.1103 6.60905 20.9697 6.7497C20.829 6.89035 20.75 7.08112 20.75 7.28003V8.03003H20C19.8011 8.03003 19.6103 8.10905 19.4697 8.2497C19.329 8.39035 19.25 8.58112 19.25 8.78003C19.25 8.97894 19.329 9.16971 19.4697 9.31036C19.6103 9.45101 19.8011 9.53003 20 9.53003H20.75V10.28C20.75 10.4789 20.829 10.6697 20.9697 10.8104C21.1103 10.951 21.3011 11.03 21.5 11.03C21.6989 11.03 21.8897 10.951 22.0304 10.8104C22.171 10.6697 22.25 10.4789 22.25 10.28V9.53003H23C23.1989 9.53003 23.3897 9.45101 23.5304 9.31036C23.671 9.16971 23.75 8.97894 23.75 8.78003C23.75 8.58112 23.671 8.39035 23.5304 8.2497C23.3897 8.10905 23.1989 8.03003 23 8.03003Z" fill="#429DED"/>
</svg>