<svg xmlns="http://www.w3.org/2000/svg" width="36" height="36" viewBox="0 0 36 36" fill="none">
  <path d="M7.79166 11.9967H10.7083V23.6634H7.79166V11.9967ZM18 11.9967H13.625C12.8229 11.9967 12.1667 12.653 12.1667 13.455V22.205C12.1667 23.0071 12.8229 23.6634 13.625 23.6634H18C18.8021 23.6634 19.4583 23.0071 19.4583 22.205V13.455C19.4583 12.653 18.8021 11.9967 18 11.9967ZM16.5417 20.7467H15.0833V14.9134H16.5417V20.7467ZM26.75 11.9967H22.375C21.5729 11.9967 20.9167 12.653 20.9167 13.455V22.205C20.9167 23.0071 21.5729 23.6634 22.375 23.6634H26.75C27.5521 23.6634 28.2083 23.0071 28.2083 22.205V13.455C28.2083 12.653 27.5521 11.9967 26.75 11.9967ZM25.2917 20.7467H23.8333V14.9134H25.2917V20.7467Z" fill="#13181F"/>
  <path d="M3.41666 6.16345V29.4968H32.5833V6.16345H3.41666ZM6.33332 26.5801V9.08012H29.6667V26.5801H6.33332Z" fill="#13181F"/>
</svg>