<svg xmlns="http://www.w3.org/2000/svg" width="25" height="25" viewBox="0 0 25 25" fill="none">
  <path d="M22.25 4.66992H15.5C14.9178 4.66992 14.3437 4.80547 13.8229 5.06582C13.3022 5.32617 12.8493 5.70419 12.5 6.16992C12.1507 5.70419 11.6978 5.32617 11.1771 5.06582C10.6563 4.80547 10.0822 4.66992 9.5 4.66992H2.75C2.55109 4.66992 2.36032 4.74894 2.21967 4.88959C2.07902 5.03024 2 5.22101 2 5.41992V18.9199C2 19.1188 2.07902 19.3096 2.21967 19.4503C2.36032 19.5909 2.55109 19.6699 2.75 19.6699H9.5C10.0967 19.6699 10.669 19.907 11.091 20.3289C11.5129 20.7509 11.75 21.3232 11.75 21.9199C11.75 22.1188 11.829 22.3096 11.9697 22.4503C12.1103 22.5909 12.3011 22.6699 12.5 22.6699C12.6989 22.6699 12.8897 22.5909 13.0303 22.4503C13.171 22.3096 13.25 22.1188 13.25 21.9199C13.25 21.3232 13.4871 20.7509 13.909 20.3289C14.331 19.907 14.9033 19.6699 15.5 19.6699H22.25C22.4489 19.6699 22.6397 19.5909 22.7803 19.4503C22.921 19.3096 23 19.1188 23 18.9199V5.41992C23 5.22101 22.921 5.03024 22.7803 4.88959C22.6397 4.74894 22.4489 4.66992 22.25 4.66992ZM9.5 18.1699H3.5V6.16992H9.5C10.0967 6.16992 10.669 6.40697 11.091 6.82893C11.5129 7.25089 11.75 7.82318 11.75 8.41992V18.9199C11.1015 18.4319 10.3116 18.1686 9.5 18.1699ZM21.5 18.1699H15.5C14.6884 18.1686 13.8985 18.4319 13.25 18.9199V8.41992C13.25 7.82318 13.4871 7.25089 13.909 6.82893C14.331 6.40697 14.9033 6.16992 15.5 6.16992H21.5V18.1699Z" fill="#13181F"/>
</svg>