<svg xmlns="http://www.w3.org/2000/svg" width="25" height="26" viewBox="0 0 25 26" fill="none">
  <g opacity="0.4">
    <path d="M21.1416 10.7341L13.3291 18.5466C13.2202 18.6559 13.0909 18.7426 12.9484 18.8017C12.806 18.8609 12.6533 18.8913 12.499 18.8913C12.3448 18.8913 12.1921 18.8609 12.0496 18.8017C11.9072 18.7426 11.7778 18.6559 11.6689 18.5466L3.85645 10.7341C3.6363 10.514 3.51262 10.2154 3.51262 9.90407C3.51262 9.59273 3.6363 9.29414 3.85645 9.07399C4.0766 8.85384 4.37519 8.73016 4.68653 8.73016C4.99787 8.73016 5.29645 8.85384 5.51661 9.07399L12.5 16.0574L19.4834 9.07302C19.7036 8.85287 20.0021 8.72919 20.3135 8.72919C20.6248 8.72919 20.9234 8.85287 21.1436 9.07302C21.3637 9.29317 21.4874 9.59176 21.4874 9.9031C21.4874 10.2144 21.3637 10.513 21.1436 10.7332L21.1416 10.7341Z" fill="#13181F"/>
  </g>
</svg>