<svg xmlns="http://www.w3.org/2000/svg" width="36" height="36" viewBox="0 0 36 36" fill="none">
  <path d="M17.7083 16.2259C14.3979 15.3655 13.3333 14.4759 13.3333 13.0905C13.3333 11.5009 14.8063 10.3926 17.2708 10.3926C19.8667 10.3926 20.8292 11.6322 20.9167 13.4551H24.1396C24.0375 10.9467 22.5063 8.64258 19.4583 7.89883V4.70508H15.0833V7.85508C12.2542 8.46758 9.97917 10.3051 9.97917 13.1197C9.97917 16.4884 12.7646 18.1655 16.8333 19.1426C20.4792 20.0176 21.2083 21.3009 21.2083 22.6572C21.2083 23.6634 20.4938 25.2676 17.2708 25.2676C14.2667 25.2676 13.0854 23.9259 12.925 22.2051H9.71667C9.89167 25.3988 12.2833 27.1926 15.0833 27.7905V30.9551H19.4583V27.8197C22.3021 27.2801 24.5625 25.6322 24.5625 22.6426C24.5625 18.5009 21.0188 17.0863 17.7083 16.2259Z" fill="#13181F"/>
</svg>