<svg xmlns="http://www.w3.org/2000/svg" width="25" height="25" viewBox="0 0 25 25" fill="none">
  <path d="M12.55 2.75C10.6216 2.75 8.73655 3.32183 7.13317 4.39317C5.5298 5.46451 4.28011 6.98726 3.54216 8.76884C2.8042 10.5504 2.61112 12.5108 2.98733 14.4021C3.36353 16.2934 4.29213 18.0307 5.65569 19.3943C7.01926 20.7579 8.75654 21.6865 10.6479 22.0627C12.5392 22.4389 14.4996 22.2458 16.2811 21.5078C18.0627 20.7699 19.5855 19.5202 20.6568 17.9168C21.7282 16.3134 22.3 14.4284 22.3 12.5C22.2973 9.91498 21.2691 7.43661 19.4413 5.60872C17.6134 3.78084 15.135 2.75273 12.55 2.75ZM12.55 18.5C12.3275 18.5 12.11 18.434 11.925 18.3104C11.74 18.1868 11.5958 18.0111 11.5106 17.8055C11.4255 17.6 11.4032 17.3738 11.4466 17.1555C11.49 16.9373 11.5972 16.7368 11.7545 16.5795C11.9118 16.4222 12.1123 16.315 12.3305 16.2716C12.5487 16.2282 12.7749 16.2505 12.9805 16.3356C13.1861 16.4208 13.3618 16.565 13.4854 16.75C13.609 16.935 13.675 17.1525 13.675 17.375C13.675 17.6734 13.5565 17.9595 13.3455 18.1705C13.1345 18.3815 12.8484 18.5 12.55 18.5ZM13.3 13.9325V14C13.3 14.1989 13.221 14.3897 13.0803 14.5303C12.9397 14.671 12.7489 14.75 12.55 14.75C12.3511 14.75 12.1603 14.671 12.0197 14.5303C11.879 14.3897 11.8 14.1989 11.8 14V13.25C11.8 13.0511 11.879 12.8603 12.0197 12.7197C12.1603 12.579 12.3511 12.5 12.55 12.5C13.7903 12.5 14.8 11.6562 14.8 10.625C14.8 9.59375 13.7903 8.75 12.55 8.75C11.3097 8.75 10.3 9.59375 10.3 10.625V11C10.3 11.1989 10.221 11.3897 10.0803 11.5303C9.93966 11.671 9.7489 11.75 9.54998 11.75C9.35107 11.75 9.16031 11.671 9.01965 11.5303C8.879 11.3897 8.79998 11.1989 8.79998 11V10.625C8.79998 8.76406 10.4819 7.25 12.55 7.25C14.6181 7.25 16.3 8.76406 16.3 10.625C16.3 12.2544 15.01 13.6184 13.3 13.9325Z" fill="#4278ED"/>
</svg>