<svg xmlns="http://www.w3.org/2000/svg" width="25" height="25" viewBox="0 0 25 25" fill="none">
  <path d="M22.4647 11.0972L18.2459 14.7375L19.5313 20.1815C19.6022 20.4771 19.5839 20.787 19.4788 21.0722C19.3736 21.3573 19.1864 21.6049 18.9406 21.7837C18.6948 21.9625 18.4015 22.0644 18.0979 22.0766C17.7942 22.0888 17.4937 22.0107 17.2344 21.8522L12.5 18.9384L7.76282 21.8522C7.50353 22.0098 7.20341 22.0871 6.90026 22.0745C6.5971 22.0618 6.30446 21.9598 6.05919 21.7812C5.81392 21.6025 5.62698 21.3553 5.52191 21.0707C5.41685 20.7861 5.39835 20.4767 5.46875 20.1815L6.75875 14.7375L2.54 11.0972C2.31059 10.8989 2.14468 10.6374 2.06299 10.3454C1.98129 10.0534 1.98743 9.74383 2.08064 9.4553C2.17385 9.16677 2.35 8.91209 2.58709 8.72307C2.82418 8.53405 3.1117 8.41907 3.41375 8.39249L8.945 7.94624L11.0788 2.78249C11.1942 2.50107 11.3908 2.26034 11.6435 2.09093C11.8961 1.92151 12.1935 1.83105 12.4977 1.83105C12.8019 1.83105 13.0992 1.92151 13.3518 2.09093C13.6045 2.26034 13.8011 2.50107 13.9166 2.78249L16.0494 7.94624L21.5806 8.39249C21.8833 8.41808 22.1716 8.53242 22.4096 8.72118C22.6475 8.90994 22.8245 9.16472 22.9183 9.4536C23.0121 9.74248 23.0185 10.0526 22.9368 10.3452C22.8552 10.6377 22.689 10.8996 22.4591 11.0981L22.4647 11.0972Z" fill="#4287ED"/>
</svg>