<svg xmlns="http://www.w3.org/2000/svg" width="36" height="36" viewBox="0 0 36 36" fill="none">
  <path d="M31.125 11.9967C29.0104 11.9967 27.8292 14.0967 28.3104 15.6571L23.1333 20.8488C22.6958 20.7175 22.0542 20.7175 21.6167 20.8488L17.8979 17.13C18.3938 15.5696 17.2125 13.455 15.0833 13.455C12.9688 13.455 11.7729 15.555 12.2687 17.13L5.61875 23.7655C4.05833 23.2842 1.95833 24.4655 1.95833 26.58C1.95833 28.1842 3.27083 29.4967 4.875 29.4967C6.98958 29.4967 8.17083 27.3967 7.68958 25.8363L14.325 19.1863C14.7625 19.3175 15.4042 19.3175 15.8417 19.1863L19.5604 22.905C19.0646 24.4655 20.2458 26.58 22.375 26.58C24.4896 26.58 25.6854 24.48 25.1896 22.905L30.3813 17.728C31.9417 18.2092 34.0417 17.028 34.0417 14.9134C34.0417 13.3092 32.7292 11.9967 31.125 11.9967Z" fill="#13181F"/>
  <path d="M22.375 13.4551L23.7458 10.4363L26.75 9.08008L23.7458 7.72383L22.375 4.70508L21.0333 7.72383L18 9.08008L21.0333 10.4363L22.375 13.4551ZM5.60417 16.3717L6.33333 13.4551L9.25 12.7259L6.33333 11.9967L5.60417 9.08008L4.875 11.9967L1.95833 12.7259L4.875 13.4551L5.60417 16.3717Z" fill="#13181F"/>
</svg>