<svg xmlns="http://www.w3.org/2000/svg" width="25" height="25" viewBox="0 0 25 25" fill="none">
  <path d="M5.75 12.9199C5.75 13.1188 5.67098 13.3096 5.53033 13.4503C5.38968 13.5909 5.19891 13.6699 5 13.6699H2.75C2.55109 13.6699 2.36032 13.5909 2.21967 13.4503C2.07902 13.3096 2 13.1188 2 12.9199C2 12.721 2.07902 12.5302 2.21967 12.3896C2.36032 12.2489 2.55109 12.1699 2.75 12.1699H3.5V6.16992H2.75C2.55109 6.16992 2.36032 6.0909 2.21967 5.95025C2.07902 5.8096 2 5.61883 2 5.41992C2 5.22101 2.07902 5.03024 2.21967 4.88959C2.36032 4.74894 2.55109 4.66992 2.75 4.66992H4.25C4.37697 4.66979 4.50189 4.70188 4.61306 4.76321C4.72423 4.82454 4.81802 4.91308 4.88562 5.02055L8 10.0052L11.1144 5.02242C11.1818 4.91461 11.2754 4.82569 11.3866 4.76403C11.4978 4.70237 11.6229 4.66999 11.75 4.66992H13.25C13.4489 4.66992 13.6397 4.74894 13.7803 4.88959C13.921 5.03024 14 5.22101 14 5.41992C14 5.61883 13.921 5.8096 13.7803 5.95025C13.6397 6.0909 13.4489 6.16992 13.25 6.16992H12.5V12.1699H13.25C13.4489 12.1699 13.6397 12.2489 13.7803 12.3896C13.921 12.5302 14 12.721 14 12.9199C14 13.1188 13.921 13.3096 13.7803 13.4503C13.6397 13.5909 13.4489 13.6699 13.25 13.6699H11C10.8011 13.6699 10.6103 13.5909 10.4697 13.4503C10.329 13.3096 10.25 13.1188 10.25 12.9199C10.25 12.721 10.329 12.5302 10.4697 12.3896C10.6103 12.2489 10.8011 12.1699 11 12.1699V8.03461L8.63562 11.8174C8.56817 11.9251 8.47445 12.0139 8.36327 12.0755C8.25209 12.137 8.12708 12.1693 8 12.1693C7.87292 12.1693 7.74791 12.137 7.63673 12.0755C7.52555 12.0139 7.43183 11.9251 7.36438 11.8174L5 8.03461V12.1699C5.19891 12.1699 5.38968 12.2489 5.53033 12.3896C5.67098 12.5302 5.75 12.721 5.75 12.9199ZM16.25 10.6699H22.25C22.4489 10.6699 22.6397 10.5909 22.7803 10.4503C22.921 10.3096 23 10.1188 23 9.91992C23 9.72101 22.921 9.53024 22.7803 9.38959C22.6397 9.24894 22.4489 9.16992 22.25 9.16992H16.25C16.0511 9.16992 15.8603 9.24894 15.7197 9.38959C15.579 9.53024 15.5 9.72101 15.5 9.91992C15.5 10.1188 15.579 10.3096 15.7197 10.4503C15.8603 10.5909 16.0511 10.6699 16.25 10.6699ZM22.25 12.1699H16.25C16.0511 12.1699 15.8603 12.2489 15.7197 12.3896C15.579 12.5302 15.5 12.721 15.5 12.9199C15.5 13.1188 15.579 13.3096 15.7197 13.4503C15.8603 13.5909 16.0511 13.6699 16.25 13.6699H22.25C22.4489 13.6699 22.6397 13.5909 22.7803 13.4503C22.921 13.3096 23 13.1188 23 12.9199C23 12.721 22.921 12.5302 22.7803 12.3896C22.6397 12.2489 22.4489 12.1699 22.25 12.1699ZM22.25 15.1699H8C7.80109 15.1699 7.61032 15.2489 7.46967 15.3896C7.32902 15.5302 7.25 15.721 7.25 15.9199C7.25 16.1188 7.32902 16.3096 7.46967 16.4503C7.61032 16.5909 7.80109 16.6699 8 16.6699H22.25C22.4489 16.6699 22.6397 16.5909 22.7803 16.4503C22.921 16.3096 23 16.1188 23 15.9199C23 15.721 22.921 15.5302 22.7803 15.3896C22.6397 15.2489 22.4489 15.1699 22.25 15.1699ZM22.25 18.1699H8C7.80109 18.1699 7.61032 18.2489 7.46967 18.3896C7.32902 18.5302 7.25 18.721 7.25 18.9199C7.25 19.1188 7.32902 19.3096 7.46967 19.4503C7.61032 19.5909 7.80109 19.6699 8 19.6699H22.25C22.4489 19.6699 22.6397 19.5909 22.7803 19.4503C22.921 19.3096 23 19.1188 23 18.9199C23 18.721 22.921 18.5302 22.7803 18.3896C22.6397 18.2489 22.4489 18.1699 22.25 18.1699Z" fill="#13181F"/>
</svg>