<svg xmlns="http://www.w3.org/2000/svg" width="25" height="25" viewBox="0 0 25 25" fill="none">
  <path d="M21.47 6.40141L13.22 1.88735C12.9996 1.76555 12.7518 1.70166 12.5 1.70166C12.2482 1.70166 12.0004 1.76555 11.78 1.88735L3.53 6.40328C3.2944 6.53219 3.09772 6.722 2.96052 6.95287C2.82331 7.18374 2.75061 7.44722 2.75 7.71578V16.682C2.75061 16.9506 2.82331 17.2141 2.96052 17.4449C3.09772 17.6758 3.2944 17.8656 3.53 17.9945L11.78 22.5105C12.0004 22.6323 12.2482 22.6962 12.5 22.6962C12.7518 22.6962 12.9996 22.6323 13.22 22.5105L21.47 17.9945C21.7056 17.8656 21.9023 17.6758 22.0395 17.4449C22.1767 17.2141 22.2494 16.9506 22.25 16.682V7.71672C22.2499 7.44768 22.1774 7.18362 22.0402 6.9522C21.903 6.72079 21.706 6.53055 21.47 6.40141ZM12.5 11.4498L4.96719 7.32485L12.5 3.19985L20.0328 7.32485L12.5 11.4498ZM13.25 20.7911V12.7464L20.75 8.64203V16.682L13.25 20.7911Z" fill="#4298ED"/>
</svg>