<svg xmlns="http://www.w3.org/2000/svg" width="36" height="36" viewBox="0 0 36 36" fill="none">
  <path d="M31.125 18.1509C31.125 10.1447 24.9125 4.70508 18 4.70508C11.1604 4.70508 4.87499 10.028 4.87499 18.2384C3.99999 18.7342 3.41666 19.6676 3.41666 20.7467V23.6634C3.41666 25.2676 4.72916 26.5801 6.33332 26.5801H7.79166V17.6842C7.79166 12.0405 12.3562 7.47591 18 7.47591C23.6437 7.47591 28.2083 12.0405 28.2083 17.6842V28.0384H16.5417V30.9551H28.2083C29.8125 30.9551 31.125 29.6426 31.125 28.0384V26.2592C31.9854 25.8072 32.5833 24.9176 32.5833 23.8676V20.5134C32.5833 19.4926 31.9854 18.603 31.125 18.1509Z" fill="#13181F"/>
  <path d="M13.625 20.7467C14.4304 20.7467 15.0833 20.0938 15.0833 19.2884C15.0833 18.483 14.4304 17.8301 13.625 17.8301C12.8196 17.8301 12.1667 18.483 12.1667 19.2884C12.1667 20.0938 12.8196 20.7467 13.625 20.7467Z" fill="#13181F"/>
  <path d="M22.375 20.7467C23.1804 20.7467 23.8333 20.0938 23.8333 19.2884C23.8333 18.483 23.1804 17.8301 22.375 17.8301C21.5696 17.8301 20.9167 18.483 20.9167 19.2884C20.9167 20.0938 21.5696 20.7467 22.375 20.7467Z" fill="#13181F"/>
  <path d="M26.75 16.4155C26.05 12.2592 22.4333 9.08008 18.0729 9.08008C13.6542 9.08008 8.9 12.7405 9.27916 18.4863C12.8812 17.0134 15.5937 13.8051 16.3667 9.89674C18.2771 13.7322 22.2 16.3717 26.75 16.4155Z" fill="#13181F"/>
</svg>