<svg xmlns="http://www.w3.org/2000/svg" width="17" height="19" viewBox="0 0 17 19" fill="none">
  <path d="M13.7869 9.21594C13.7679 9.13583 13.7295 9.06164 13.675 8.99995C13.6205 8.93825 13.5516 8.89098 13.4744 8.86231L9.87374 7.51216L10.79 2.93062C10.8107 2.82417 10.7963 2.71386 10.7488 2.61634C10.7014 2.51882 10.6234 2.43938 10.5269 2.39001C10.4303 2.34063 10.3202 2.32401 10.2133 2.34263C10.1065 2.36126 10.0085 2.41413 9.93437 2.49327L2.93437 9.99067C2.87752 10.0506 2.83639 10.1236 2.81466 10.2032C2.79293 10.2829 2.79128 10.3667 2.80985 10.4471C2.82842 10.5276 2.86663 10.6022 2.92108 10.6643C2.97553 10.7263 3.04451 10.774 3.12187 10.8029L6.72374 12.153L5.80999 16.7296C5.78925 16.836 5.8037 16.9463 5.85116 17.0439C5.89863 17.1414 5.97654 17.2208 6.07313 17.2702C6.16973 17.3196 6.27977 17.3362 6.38664 17.3176C6.49352 17.2989 6.59144 17.2461 6.66562 17.1669L13.6656 9.66953C13.7214 9.60964 13.7617 9.53695 13.7828 9.45786C13.804 9.37876 13.8054 9.29569 13.7869 9.21594ZM7.13562 15.2032L7.78999 11.9306C7.81341 11.8146 7.79486 11.694 7.73763 11.5903C7.6804 11.4866 7.58821 11.4066 7.47749 11.3646L4.17499 10.1244L9.46374 4.46009L8.80999 7.73271C8.78657 7.84877 8.80513 7.96938 8.86236 8.07304C8.91959 8.17671 9.01178 8.2567 9.12249 8.29876L12.4225 9.53583L7.13562 15.2032Z" fill="#13181F"/>
</svg>