<svg xmlns="http://www.w3.org/2000/svg" width="25" height="25" viewBox="0 0 25 25" fill="none">
  <path d="M19.7806 18.3892C19.8503 18.4589 19.9056 18.5416 19.9433 18.6327C19.981 18.7237 20.0004 18.8213 20.0004 18.9199C20.0004 19.0184 19.981 19.116 19.9433 19.207C19.9056 19.2981 19.8503 19.3808 19.7806 19.4505C19.7109 19.5202 19.6282 19.5754 19.5372 19.6131C19.4461 19.6509 19.3485 19.6703 19.25 19.6703C19.1514 19.6703 19.0539 19.6509 18.9628 19.6131C18.8718 19.5754 18.789 19.5202 18.7194 19.4505L12.5 13.2302L6.28061 19.4505C6.13988 19.5912 5.94901 19.6703 5.74999 19.6703C5.55097 19.6703 5.3601 19.5912 5.21936 19.4505C5.07863 19.3097 4.99957 19.1189 4.99957 18.9199C4.99957 18.7208 5.07863 18.53 5.21936 18.3892L11.4397 12.1699L5.21936 5.95048C5.07863 5.80975 4.99957 5.61887 4.99957 5.41985C4.99957 5.22083 5.07863 5.02996 5.21936 4.88923C5.3601 4.7485 5.55097 4.66943 5.74999 4.66943C5.94901 4.66943 6.13988 4.7485 6.28061 4.88923L12.5 11.1095L18.7194 4.88923C18.8601 4.7485 19.051 4.66943 19.25 4.66943C19.449 4.66943 19.6399 4.7485 19.7806 4.88923C19.9213 5.02996 20.0004 5.22083 20.0004 5.41985C20.0004 5.61887 19.9213 5.80975 19.7806 5.95048L13.5603 12.1699L19.7806 18.3892Z" fill="#13181F"/>
</svg>