<svg xmlns="http://www.w3.org/2000/svg" width="25" height="25" viewBox="0 0 25 25" fill="none">
  <path d="M15.9163 11.5456L11.4163 8.54555C11.3033 8.47017 11.1719 8.42689 11.0363 8.42032C10.9006 8.41374 10.7657 8.44413 10.646 8.50823C10.5263 8.57234 10.4262 8.66775 10.3564 8.78428C10.2867 8.90082 10.2499 9.03411 10.25 9.16993V15.1699C10.2499 15.3057 10.2867 15.439 10.3564 15.5556C10.4262 15.6721 10.5263 15.7675 10.646 15.8316C10.7657 15.8957 10.9006 15.9261 11.0363 15.9195C11.1719 15.913 11.3033 15.8697 11.4163 15.7943L15.9163 12.7943C16.0191 12.7258 16.1035 12.633 16.1618 12.5241C16.2202 12.4152 16.2507 12.2935 16.2507 12.1699C16.2507 12.0464 16.2202 11.9247 16.1618 11.8158C16.1035 11.7068 16.0191 11.614 15.9163 11.5456ZM11.75 13.7684V10.5762L14.1481 12.1699L11.75 13.7684ZM22.4684 6.68743C22.3801 6.34181 22.2109 6.02216 21.9747 5.75483C21.7385 5.4875 21.4421 5.28017 21.11 5.14993C17.8962 3.90868 12.7812 3.91993 12.5 3.91993C12.2188 3.91993 7.10375 3.90868 3.89 5.14993C3.5579 5.28017 3.26153 5.4875 3.02534 5.75483C2.78915 6.02216 2.6199 6.34181 2.53156 6.68743C2.28875 7.62305 2 9.33305 2 12.1699C2 15.0068 2.28875 16.7168 2.53156 17.6524C2.61977 17.9982 2.78895 18.3181 3.02515 18.5856C3.26136 18.8531 3.5578 19.0605 3.89 19.1909C6.96875 20.3787 11.7875 20.4199 12.4381 20.4199H12.5619C13.2125 20.4199 18.0341 20.3787 21.11 19.1909C21.4422 19.0605 21.7386 18.8531 21.9748 18.5856C22.211 18.3181 22.3802 17.9982 22.4684 17.6524C22.7113 16.7149 23 15.0068 23 12.1699C23 9.33305 22.7113 7.62305 22.4684 6.68743ZM21.0162 17.2812C20.9877 17.3962 20.9323 17.5028 20.8545 17.5923C20.7768 17.6817 20.679 17.7515 20.5691 17.7959C17.6019 18.9415 12.5553 18.9209 12.5066 18.9209H12.5C12.4494 18.9209 7.40656 18.9396 4.4375 17.7959C4.3276 17.7515 4.22977 17.6817 4.15204 17.5923C4.07431 17.5028 4.01888 17.3962 3.99031 17.2812C3.7625 16.4252 3.5 14.8484 3.5 12.1699C3.5 9.49149 3.7625 7.91461 3.98375 7.06336C4.01179 6.94766 4.06697 6.84029 4.14473 6.75014C4.2225 6.65999 4.3206 6.58964 4.43094 6.54493C7.29219 5.43961 12.0866 5.41993 12.4794 5.41993H12.5047C12.5553 5.41993 17.6028 5.40305 20.5672 6.54493C20.6771 6.58928 20.7749 6.65905 20.8526 6.74852C20.9304 6.83798 20.9858 6.94459 21.0144 7.05961C21.2375 7.91461 21.5 9.49149 21.5 12.1699C21.5 14.8484 21.2375 16.4252 21.0162 17.2765V17.2812Z" fill="#13181F"/>
</svg>