<svg xmlns="http://www.w3.org/2000/svg" width="36" height="36" viewBox="0 0 36 36" fill="none">
  <path d="M10.7083 4.70512H6.33333V9.08012H3.41667V1.78845H10.7083V4.70512ZM32.5833 9.08012V1.78845H25.2917V4.70512H29.6667V9.08012H32.5833ZM10.7083 30.9551H6.33333V26.5801H3.41667V33.8718H10.7083V30.9551ZM29.6667 26.5801V30.9551H25.2917V33.8718H32.5833V26.5801H29.6667ZM28.2083 26.5801C28.2083 28.1843 26.8958 29.4968 25.2917 29.4968H10.7083C9.10417 29.4968 7.79167 28.1843 7.79167 26.5801V9.08012C7.79167 7.47595 9.10417 6.16345 10.7083 6.16345H25.2917C26.8958 6.16345 28.2083 7.47595 28.2083 9.08012V26.5801ZM22.375 11.9968H13.625V14.9135H22.375V11.9968ZM22.375 16.3718H13.625V19.2885H22.375V16.3718ZM22.375 20.7468H13.625V23.6635H22.375V20.7468Z" fill="#13181F"/>
</svg>